<svg width="24" height="24" viewBox="0 0 24 24" fill="none" xmlns="http://www.w3.org/2000/svg">
<path fill-rule="evenodd" clip-rule="evenodd" d="M16.186 5.7502C15.0142 5.7502 13.8903 6.21573 13.0616 7.04438C12.233 7.87303 11.7674 8.99692 11.7674 10.1688C11.7674 11.3407 12.233 12.4646 13.0616 13.2932C13.8903 14.1219 15.0142 14.5874 16.186 14.5874C17.3579 14.5874 18.4818 14.1219 19.3105 13.2932C20.1391 12.4646 20.6047 11.3407 20.6047 10.1688C20.6047 8.99692 20.1391 7.87303 19.3105 7.04438C18.4818 6.21573 17.3579 5.7502 16.186 5.7502ZM12.075 6.05772C13.1653 4.96739 14.6441 4.35485 16.186 4.35485C17.728 4.35485 19.2068 4.96739 20.2971 6.05772C21.3875 7.14805 22 8.62685 22 10.1688C22 11.7108 21.3875 13.1896 20.2971 14.2799C19.2068 15.3702 17.728 15.9828 16.186 15.9828C14.6441 15.9828 13.1653 15.3702 12.075 14.2799C10.9846 13.1896 10.3721 11.7108 10.3721 10.1688C10.3721 8.62685 10.9846 7.14805 12.075 6.05772Z" fill="#666666"/>
<path fill-rule="evenodd" clip-rule="evenodd" d="M16.186 14.5874C16.5714 14.5874 16.8837 14.8998 16.8837 15.2851V18.3083H18.9767C19.3621 18.3083 19.6744 18.6207 19.6744 19.006C19.6744 19.3913 19.3621 19.7037 18.9767 19.7037H13.3953C13.01 19.7037 12.6977 19.3913 12.6977 19.006C12.6977 18.6207 13.01 18.3083 13.3953 18.3083H15.4884V15.2851C15.4884 14.8998 15.8007 14.5874 16.186 14.5874Z" fill="#666666"/>
<path d="M2.69767 10.6339V9.93625C2.51264 9.93625 2.33518 10.0098 2.20434 10.1406C2.0735 10.2714 2 10.4489 2 10.6339H2.69767ZM8.27907 10.6339H8.97674C8.97674 10.4489 8.90324 10.2714 8.7724 10.1406C8.64156 10.0098 8.4641 9.93625 8.27907 9.93625V10.6339ZM2.69767 11.3316H8.27907V9.93625H2.69767V11.3316ZM7.5814 10.6339V16.2153H8.97674V10.6339H7.5814ZM3.39535 16.2153V10.6339H2V16.2153H3.39535ZM5.48837 18.3083C4.93327 18.3083 4.4009 18.0878 4.00838 17.6953C3.61586 17.3028 3.39535 16.7704 3.39535 16.2153H2C2 17.1405 2.36752 18.0278 3.02172 18.682C3.67592 19.3362 4.5632 19.7037 5.48837 19.7037V18.3083ZM7.5814 16.2153C7.5814 16.7704 7.36088 17.3028 6.96836 17.6953C6.57584 18.0878 6.04348 18.3083 5.48837 18.3083V19.7037C5.94647 19.7037 6.40009 19.6135 6.82331 19.4382C7.24654 19.2628 7.6311 19.0059 7.95502 18.682C8.27895 18.358 8.5359 17.9735 8.71121 17.5503C8.88651 17.127 8.97674 16.6734 8.97674 16.2153H7.5814Z" fill="#666666"/>
<path d="M5.69093 4.17169C5.93906 4.0477 6.21475 3.98917 6.49185 4.00165C6.76895 4.01413 7.03827 4.09721 7.27424 4.243C7.51022 4.38879 7.70503 4.59247 7.84018 4.83469C7.97534 5.07691 8.04636 5.34966 8.04651 5.62704V11.3316H2.93023V6.55764C2.93039 6.2554 3.01469 5.9588 3.17369 5.70176C3.33266 5.44477 3.56002 5.2371 3.83032 5.102L5.69093 4.17169Z" fill="#666666"/>
</svg>
