<svg width="24" height="24" viewBox="0 0 24 24" fill="none" xmlns="http://www.w3.org/2000/svg">
<path d="M15.2254 7.58969V11.109L21.9999 5.95441L15.2254 1V4.10307C6.99992 4.10307 6.99992 12 6.99992 12C9.32849 8.28543 10.7611 7.58969 15.2254 7.58969Z" fill="#666666"/>
<path d="M20.3822 15.5485C20.3308 15.6328 20.2777 15.6952 20.2227 15.7355C20.1713 15.7722 20.1035 15.7905 20.0192 15.7905C19.9385 15.7905 19.8505 15.763 19.7552 15.708C19.6635 15.6493 19.5553 15.587 19.4307 15.521C19.306 15.455 19.163 15.3945 19.0017 15.3395C18.8403 15.2808 18.6515 15.2515 18.4352 15.2515C18.0538 15.2515 17.7678 15.3377 17.5772 15.51C17.3865 15.6787 17.2912 15.9005 17.2912 16.1755C17.2912 16.3515 17.3425 16.4982 17.4452 16.6155C17.5515 16.7292 17.689 16.8282 17.8577 16.9125C18.03 16.9968 18.2243 17.072 18.4407 17.138C18.657 17.204 18.8788 17.2773 19.1062 17.358C19.3335 17.435 19.5553 17.5267 19.7717 17.633C19.988 17.7393 20.1805 17.8732 20.3492 18.0345C20.5215 18.1958 20.659 18.3938 20.7617 18.6285C20.868 18.8595 20.9212 19.1418 20.9212 19.4755C20.9212 19.8385 20.857 20.1795 20.7287 20.4985C20.604 20.8138 20.4225 21.0907 20.1842 21.329C19.9458 21.5637 19.6507 21.7488 19.2987 21.8845C18.9503 22.0202 18.5543 22.088 18.1107 22.088C17.8577 22.088 17.6047 22.0623 17.3517 22.011C17.1023 21.9597 16.8603 21.8882 16.6257 21.7965C16.3947 21.7048 16.1765 21.5948 15.9712 21.4665C15.7658 21.3382 15.5862 21.1952 15.4322 21.0375L15.9162 20.2565C15.9565 20.1978 16.0097 20.1502 16.0757 20.1135C16.1417 20.0732 16.2113 20.053 16.2847 20.053C16.3837 20.053 16.4882 20.0897 16.5982 20.163C16.7082 20.2363 16.8347 20.317 16.9777 20.405C17.1207 20.493 17.2857 20.5737 17.4727 20.647C17.6633 20.7203 17.8907 20.757 18.1547 20.757C18.5397 20.757 18.8367 20.669 19.0457 20.493C19.2583 20.317 19.3647 20.0548 19.3647 19.7065C19.3647 19.5048 19.3115 19.3417 19.2052 19.217C19.1025 19.0923 18.9668 18.9878 18.7982 18.9035C18.6295 18.8192 18.437 18.7477 18.2207 18.689C18.0043 18.6267 17.7825 18.5588 17.5552 18.4855C17.3278 18.4122 17.106 18.3242 16.8897 18.2215C16.6733 18.1188 16.4808 17.9832 16.3122 17.8145C16.1435 17.6458 16.006 17.4368 15.8997 17.1875C15.797 16.9382 15.7457 16.6283 15.7457 16.258C15.7457 15.961 15.8043 15.6732 15.9217 15.3945C16.039 15.1158 16.2113 14.8683 16.4387 14.652C16.666 14.4357 16.9447 14.2615 17.2747 14.1295C17.6083 13.9975 17.9897 13.9315 18.4187 13.9315C18.899 13.9315 19.3427 14.0067 19.7497 14.157C20.1603 14.3037 20.5068 14.509 20.7892 14.773L20.3822 15.5485Z" fill="#666666"/>
<path d="M15.0476 20.658V22H10.3121V14.0195H11.9621V20.658H15.0476Z" fill="#666666"/>
<path d="M9.48504 22H7.83504C7.72504 22 7.63521 21.9725 7.56554 21.9175C7.49954 21.8625 7.44637 21.7983 7.40604 21.725L5.67904 18.788C5.66071 18.8283 5.64237 18.8687 5.62404 18.909C5.60937 18.9457 5.59104 18.9805 5.56904 19.0135L3.93004 21.725C3.88237 21.7947 3.82554 21.8588 3.75954 21.9175C3.69721 21.9725 3.61654 22 3.51754 22H1.97754L4.59004 17.8915L2.07654 14.0195H3.72654C3.83654 14.0195 3.91721 14.0342 3.96854 14.0635C4.01987 14.0928 4.06571 14.1405 4.10604 14.2065L5.82204 17.028C5.84037 16.984 5.86054 16.94 5.88254 16.896C5.90454 16.8483 5.93021 16.8007 5.95954 16.753L7.49954 14.234C7.54354 14.1607 7.59121 14.1075 7.64254 14.0745C7.69754 14.0378 7.76354 14.0195 7.84054 14.0195H9.41904L6.88354 17.82L9.48504 22Z" fill="#666666"/>
</svg>
